{"title":"Captain America The First Avenger(2011)MP-4[DaScubaDude]","uid":12349300,"size":1517703819,"categoryP":"video","categoryS":"movies","magnet":"?xt=urn:btih:95ff3251f43f4793f698a8b5c066c39c80c83c76&amp;dn=Captain+America+The+First+Avenger%282011%29MP-4%5BDaScubaDude%5D&amp;tr=udp%3A%2F%2Ftracker.openbittorrent.com%3A80&amp;tr=udp%3A%2F%2Fopen.demonii.com%3A1337&amp;tr=udp%3A%2F%2Ftracker.coppersurfer.tk%3A6969&amp;tr=udp%3A%2F%2Fexodus.desync.com%3A6969","seeders":0,"leechers":0,"uploader":"dascuba","files":1,"time":1441398304,"description":"Captain America: The First Avenger (2011)\nPG-13  |  124 min  |  Action, Adventure, Sci-Fi  |  22 July 2011 (USA)\n6.8 Your rating:   -/10   Ratings: 6.8/10 from 434,881 users   Metascore: 66/100 \nReviews: 655 user | 503 critic | 36 from Metacritic.com\nSteve Rogers, a rejected military soldier transforms into Captain America after taking a dose of a &quot;Super-Soldier serum&quot;. But being Captain America comes at a price as he attempts to take down a war monger and a terrorist organization.\n\nDirector: Joe Johnston\nWriters: Christopher Markus (screenplay), Stephen McFeely (screenplay), 2 more credits Â»\nStars: Chris Evans, Hugo Weaving, Samuel L. Jackson  \n\nGeneral\nComplete name                            : C:Captain America The First AvengerCAPTAIN_AMERICA_Title25.mp4\nFormat                                   : MPEG-4\nFormat profile                           : Base Media\nCodec ID                                 : isom\nFile size                                : 1.41 GiB\nDuration                                 : 2h 4mn\nOverall bit rate mode                    : Constant\nOverall bit rate                         : 1 631 Kbps\nMovie name                               : CAPTAIN_AMERICA\nGenre                                    : Action\nWriting application                      : Lavf54.6.100\n\nVideo\nID                                       : 1\nFormat                                   : MPEG-4 Visual\nFormat settings, BVOP                    : No\nFormat settings, QPel                    : No\nFormat settings, GMC                     : No warppoints\nFormat settings, Matrix                  : Default (H.263)\nCodec ID                                 : 20\nDuration                                 : 2h 4mn\nBit rate mode                            : Constant\nBit rate                                 : 1 497 Kbps\nWidth                                    : 720 pixels\nHeight                                   : 404 pixels\nDisplay aspect ratio                     : 16:9\nFrame rate mode                          : Constant\nFrame rate                               : 29.970 fps\nColor space                              : YUV\nChroma subsampling                       : 4:2:0\nBit depth                                : 8 bits\nScan type                                : Progressive\nCompression mode                         : Lossy\nBits/(Pixel*Frame)                       : 0.172\nStream size                              : 1.30 GiB (92%)\nWriting library                          : Lavc54.23.100\n\nAudio\nID                                       : 2\nFormat                                   : MPEG Audio\nFormat version                           : Version 1\nFormat profile                           : Layer 3\nCodec ID                                 : 6B\nDuration                                 : 2h 4mn\nBit rate mode                            : Constant\nBit rate                                 : 128 Kbps\nChannel(s)                               : 2 channels\nSampling rate                            : 44.1 KHz\nCompression mode                         : Lossy\nStream size                              : 114 MiB (8%)\nWriting library                          : LAME3.99.5","torrent":{"xt":"urn:btih:95ff3251f43f4793f698a8b5c066c39c80c83c76","amp;dn":"Captain+America+The+First+Avenger%282011%29MP-4%5BDaScubaDude%5D","amp;tr":["udp%3A%2F%2Ftracker.openbittorrent.com%3A80","udp%3A%2F%2Fopen.demonii.com%3A1337","udp%3A%2F%2Ftracker.coppersurfer.tk%3A6969","udp%3A%2F%2Fexodus.desync.com%3A6969"],"infoHash":"95ff3251f43f4793f698a8b5c066c39c80c83c76","infoHashBuffer":{"type":"Buffer","data":[149,255,50,81,244,63,71,147,246,152,168,181,192,102,195,156,128,200,60,118]},"announce":[],"urlList":[]}}